<svg width="1024" height="1024" viewBox="0 0 1024 1024" fill="none" xmlns="http://www.w3.org/2000/svg">
  <rect width="1024" height="1024" rx="160" fill="#FFFFFF"/>
  
  <rect x="112" y="112" width="800" height="800" rx="120" stroke="rgba(0,0,0,0.05)" stroke-width="8"/>

  <g transform="translate(256, 256) scale(1.6)">
    <path d="M20 0H300V220L220 300H20C8.95431 300 0 291.046 0 280V20C0 8.95431 8.95431 0 20 0Z" fill="#616161"/>
    <path d="M300 220H240C228.954 220 220 228.954 220 240V300L300 220Z" fill="#424242"/>
    
    <rect x="40" y="60" width="220" height="20" rx="10" fill="#FAFAFA" fill-opacity="0.8"/>
    <rect x="40" y="120" width="220" height="20" rx="10" fill="#FAFAFA" fill-opacity="0.8"/>
    <rect x="40" y="180" width="140" height="20" rx="10" fill="#FAFAFA" fill-opacity="0.8"/>

    <path d="M180 220L210 250L280 180" stroke="#1565C0" stroke-width="30" stroke-linecap="round" stroke-linejoin="round"/>
  </g>
</svg>
