<svg width="512" height="512" viewBox="0 0 512 512" fill="none" xmlns="http://www.w3.org/2000/svg">
  <rect width="512" height="512" rx="100" fill="#1565C0"/>
  
  <rect x="20" y="20" width="472" height="472" rx="90" stroke="rgba(255,255,255,0.05)" stroke-width="8"/>

  <g transform="translate(128, 128) scale(1.0)">
    <path d="M20 0H256V180L180 256H20C8.95431 256 0 247.046 0 236V20C0 8.95431 8.95431 0 20 0Z" fill="#FFFFFF"/>
    
    <path d="M256 180H200C188.954 180 180 188.954 180 200V256L256 180Z" fill="#E0E0E0"/>
    
    <rect x="40" y="60" width="176" height="16" rx="8" fill="#616161" fill-opacity="0.2"/>
    <rect x="40" y="108" width="176" height="16" rx="8" fill="#616161" fill-opacity="0.2"/>
    <rect x="40" y="156" width="112" height="16" rx="8" fill="#616161" fill-opacity="0.2"/>

    <path d="M160 216L196 252L260 188" stroke="#FAFAFA" stroke-width="28" stroke-linecap="round" stroke-linejoin="round"/>
    
    <path d="M160 216L196 252L260 188" stroke="rgba(0,0,0,0.1)" stroke-width="30" stroke-linecap="round" stroke-linejoin="round" filter="url(#f1)"/>
  </g>
  
  <defs>
    <filter id="f1" x="0" y="0" width="200%" height="200%">
      <feOffset result="offOut" in="SourceAlpha" dx="2" dy="4" />
      <feGaussianBlur result="blurOut" in="offOut" stdDeviation="2" />
      <feBlend in="SourceGraphic" in2="blurOut" mode="normal" />
    </filter>
  </defs>
</svg>
